<svg width="46" height="18" viewBox="0 0 46 18" fill="none" xmlns="http://www.w3.org/2000/svg">
<g clip-path="url(#clip0_29_159)">
<path d="M9.43603 2.742C10.0724 1.97589 10.3877 0.993334 10.316 0C9.34076 0.0941346 8.44048 0.564359 7.80603 1.311C7.49009 1.66864 7.24794 2.08518 7.09349 2.53669C6.93904 2.98821 6.87533 3.46579 6.90603 3.942C7.39186 3.95152 7.87326 3.84809 8.3123 3.63985C8.75134 3.43161 9.13602 3.12425 9.43603 2.742ZM10.256 4.123C8.85603 4.042 7.67603 4.923 7.00603 4.923C6.33603 4.923 5.31603 4.167 4.21603 4.187C3.49577 4.2073 2.79346 4.41627 2.17927 4.79303C1.56508 5.16979 1.06052 5.70115 0.716028 6.334C-0.783972 8.934 0.316028 12.807 1.77603 14.924C2.48603 15.93 3.33603 17.129 4.46603 17.09C5.59603 17.051 5.94603 16.39 7.23603 16.39C8.52603 16.39 8.90603 17.09 10.026 17.065C11.146 17.04 11.926 16.057 12.626 14.965C13.131 14.2191 13.5251 13.404 13.796 12.545C13.1236 12.2473 12.5516 11.7616 12.1488 11.1463C11.7461 10.531 11.5298 9.81237 11.526 9.077C11.5343 8.42451 11.7062 7.78453 12.0259 7.21568C12.3456 6.64683 12.803 6.1673 13.356 5.821C13.0046 5.31855 12.5422 4.90382 12.0045 4.609C11.4669 4.31418 10.8686 4.14719 10.256 4.121M19.186 2.105V4.96H21.466V6.845H19.186V13.6C19.186 14.608 19.636 15.122 20.636 15.122C20.9103 15.117 21.184 15.097 21.456 15.062V16.962C21.0098 17.0343 20.5581 17.0677 20.106 17.062C17.746 17.062 16.836 16.145 16.836 13.846V6.89H15.046V5H16.786V2.107L19.186 2.105ZM29.436 16.958H26.936L22.736 5H25.226L28.176 14.608H28.236L31.186 5H33.626L29.436 16.958ZM40.416 16.958H38.256V12.058H33.616V9.9H38.246V5H40.406V9.9H45.046V12.058H40.416V16.958Z" fill="white"/>
</g>
<defs>
<clipPath id="clip0_29_159">
<rect width="45.046" height="17.091" fill="white"/>
</clipPath>
</defs>
</svg>
