<svg width="66" height="13" viewBox="0 0 66 13" fill="none" xmlns="http://www.w3.org/2000/svg">
<g clip-path="url(#clip0_30_166)">
<path d="M8.12971 12.3032H5.08783V7.96539H3.11989V12.3032H0V1.11362H3.11389V5.28948H5.08182V1.11362H8.12372V12.3032H8.12971ZM22.0732 12.3512C25.1871 12.3512 27.7311 9.75933 27.7311 6.60344C27.7311 3.39955 25.1871 0.921631 22.0732 0.921631C18.9173 0.921631 17.3214 3.21355 16.9374 4.14952C16.9374 2.76357 15.5515 1.10762 13.9435 1.10762H8.74771V12.3032H13.5835C15.5515 12.3032 16.9374 10.6233 16.9374 9.14735C17.3754 10.0593 18.9233 12.3512 22.0732 12.3512ZM13.1995 7.80339C13.6495 7.80339 14.0095 8.24138 14.0095 8.73936C14.0095 9.26134 13.6495 9.69933 13.1995 9.69933H11.6516V7.80339H13.1995ZM13.1995 3.60354C13.6495 3.60354 14.0095 4.04152 14.0095 4.53951C14.0095 5.03749 13.6495 5.47547 13.1995 5.47547H11.6516V3.60354H13.1995ZM15.2455 6.60344C15.6055 6.57944 16.1934 6.16545 16.4154 5.91946C16.3314 6.21945 16.3314 7.16742 16.4154 7.46741C16.1694 7.10142 15.6055 6.66943 15.2455 6.60344ZM19.2353 6.60344C19.2353 5.02549 20.5193 3.75353 22.0972 3.75953C23.6812 3.77153 24.9411 5.06149 24.9231 6.64543C24.8991 8.20538 23.6392 9.45934 22.0792 9.45934C20.5073 9.45934 19.2353 8.18738 19.2353 6.60344ZM22.0732 8.84736C23.2852 8.84736 24.3052 7.85139 24.3052 6.60344C24.3052 5.35548 23.2852 4.37151 22.0732 4.37151C20.8253 4.37151 19.8293 5.35548 19.8293 6.60344C19.8293 7.85139 20.8253 8.84736 22.0732 8.84736Z" fill="white"/>
<path d="M43.9905 5.07338C43.9305 2.36148 42.0106 0.927527 39.6586 0.927527C38.3687 0.927527 37.2047 1.35951 36.4128 2.19948C35.6208 1.35951 34.4568 0.927527 33.1669 0.927527C30.815 0.927527 28.895 2.36748 28.835 5.07938C28.835 5.08538 28.835 5.09138 28.835 5.09738V11.2832C28.835 11.8532 29.297 12.3091 29.861 12.3091H30.8329C30.9289 12.3091 31.0069 12.2311 31.0069 12.1351V5.09138C31.0489 3.75343 31.9969 3.04545 33.1669 3.04545C34.3368 3.04545 35.2848 3.75343 35.3268 5.09138V11.2772C35.3268 11.8472 35.7888 12.3031 36.3528 12.3031H37.3247C37.4207 12.3031 37.4987 12.2251 37.4987 12.1291V5.08538C37.5407 3.74743 38.4887 3.03945 39.6586 3.03945C40.8286 3.03945 41.7766 3.74743 41.8186 5.08538V11.2712C41.8186 11.8412 42.2806 12.2971 42.8445 12.2971H43.8165C43.9125 12.2971 43.9905 12.2191 43.9905 12.1231V5.07938C43.9965 5.08538 43.9905 5.07938 43.9905 5.07338ZM65.8717 1.10152H64.2218C63.7658 1.10152 63.3398 1.32951 63.0818 1.7075L61.2579 4.40741C61.0179 4.7614 60.5019 4.7614 60.2619 4.40741L58.438 1.7075C58.186 1.32951 57.754 1.10152 57.298 1.10152H55.6481C55.5461 1.10152 55.4861 1.21552 55.5401 1.29951L58.792 6.12335C59.026 6.47134 59.026 6.92732 58.792 7.27531L55.5401 12.0991C55.4801 12.1831 55.5461 12.2971 55.6481 12.2971H57.298C57.754 12.2971 58.18 12.0691 58.438 11.6912L60.2619 8.99125C60.5019 8.63726 61.0179 8.63726 61.2579 8.99125L63.0818 11.6912C63.3338 12.0691 63.7658 12.2971 64.2218 12.2971H65.8717C65.9737 12.2971 66.0337 12.1831 65.9797 12.0991L62.7218 7.28131C62.4879 6.93332 62.4879 6.47734 62.7218 6.12935L65.9737 1.30551C66.0337 1.22152 65.9737 1.10152 65.8717 1.10152ZM54.7961 1.10152H53.8242C53.3322 1.10152 52.9182 1.44951 52.8162 1.91149C51.9522 1.25152 50.8663 0.915527 49.6963 0.915527C46.8524 0.915527 44.5425 2.89546 44.5425 6.63333C44.5425 10.3712 46.8464 12.3511 49.6963 12.3511C50.8603 12.3511 51.9342 12.0211 52.7982 11.3732C52.8462 11.8952 53.2842 12.3091 53.8242 12.3091H54.7961C54.8921 12.3091 54.9701 12.2311 54.9701 12.1351V1.27551C54.9641 1.17952 54.8921 1.10152 54.7961 1.10152ZM49.6963 10.2272C47.9984 10.2272 46.6184 8.98525 46.6184 6.63933C46.6184 4.29341 47.9984 3.05145 49.6963 3.05145C51.3942 3.05145 52.7742 4.29341 52.7742 6.63933C52.7742 8.98525 51.3942 10.2272 49.6963 10.2272Z" fill="url(#paint0_linear_30_166)"/>
<mask id="mask0_30_166" style="mask-type:luminance" maskUnits="userSpaceOnUse" x="28" y="0" width="38" height="13">
<path d="M43.9905 5.07338C43.9305 2.36148 42.0106 0.927528 39.6586 0.927528C38.3687 0.927528 37.2047 1.35951 36.4128 2.19948C35.6208 1.35951 34.4568 0.927528 33.1669 0.927528C30.815 0.927528 28.895 2.36748 28.835 5.07939C28.835 5.08538 28.835 5.09138 28.835 5.09738V11.2832C28.835 11.8532 29.297 12.3091 29.861 12.3091H30.8329C30.9289 12.3091 31.0069 12.2311 31.0069 12.1351V5.09138C31.0489 3.75343 31.9969 3.04545 33.1669 3.04545C34.3368 3.04545 35.2848 3.75343 35.3268 5.09138V11.2772C35.3268 11.8472 35.7888 12.3031 36.3528 12.3031H37.3247C37.4207 12.3031 37.4987 12.2251 37.4987 12.1291V5.08538C37.5407 3.74743 38.4887 3.03946 39.6586 3.03946C40.8286 3.03946 41.7766 3.74743 41.8186 5.08538V11.2712C41.8186 11.8412 42.2806 12.2971 42.8445 12.2971H43.8165C43.9125 12.2971 43.9905 12.2191 43.9905 12.1231V5.07939C43.9965 5.08538 43.9905 5.07938 43.9905 5.07338V5.07338ZM65.8717 1.10152H64.2218C63.7658 1.10152 63.3398 1.32951 63.0818 1.7075L61.2579 4.40741C61.0179 4.7614 60.5019 4.7614 60.2619 4.40741L58.438 1.7075C58.186 1.32951 57.754 1.10152 57.298 1.10152H55.6481C55.5461 1.10152 55.4861 1.21552 55.5401 1.29951L58.792 6.12335C59.026 6.47134 59.026 6.92732 58.792 7.27531L55.5401 12.0991C55.4801 12.1831 55.5461 12.2971 55.6481 12.2971H57.298C57.754 12.2971 58.18 12.0691 58.438 11.6912L60.2619 8.99125C60.5019 8.63726 61.0179 8.63726 61.2579 8.99125L63.0818 11.6912C63.3338 12.0691 63.7658 12.2971 64.2218 12.2971H65.8717C65.9737 12.2971 66.0337 12.1831 65.9797 12.0991L62.7218 7.28131C62.4879 6.93332 62.4879 6.47734 62.7218 6.12935L65.9737 1.30551C66.0337 1.22152 65.9737 1.10152 65.8717 1.10152V1.10152ZM54.7961 1.10152H53.8242C53.3322 1.10152 52.9182 1.44951 52.8162 1.91149C51.9522 1.25152 50.8663 0.915527 49.6963 0.915527C46.8524 0.915527 44.5425 2.89546 44.5425 6.63333C44.5425 10.3712 46.8464 12.3511 49.6963 12.3511C50.8603 12.3511 51.9342 12.0211 52.7982 11.3732C52.8462 11.8952 53.2842 12.3091 53.8242 12.3091H54.7961C54.8921 12.3091 54.9701 12.2311 54.9701 12.1351V1.27551C54.9641 1.17952 54.8921 1.10152 54.7961 1.10152V1.10152ZM49.6963 10.2272C47.9984 10.2272 46.6184 8.98525 46.6184 6.63933C46.6184 4.29341 47.9984 3.05145 49.6963 3.05145C51.3942 3.05145 52.7742 4.29341 52.7742 6.63933C52.7742 8.98525 51.3942 10.2272 49.6963 10.2272Z" fill="white"/>
</mask>
<g mask="url(#mask0_30_166)">
<path d="M37.7807 13.1732C41.4456 13.1732 44.4165 9.30508 44.4165 4.5335C44.4165 -0.238076 41.4456 -4.1062 37.7807 -4.1062C34.1159 -4.1062 31.145 -0.238076 31.145 4.5335C31.145 9.30508 34.1159 13.1732 37.7807 13.1732Z" fill="url(#paint1_radial_30_166)"/>
</g>
<mask id="mask1_30_166" style="mask-type:luminance" maskUnits="userSpaceOnUse" x="28" y="0" width="38" height="13">
<path d="M43.9905 5.07338C43.9305 2.36148 42.0106 0.927528 39.6586 0.927528C38.3687 0.927528 37.2047 1.35951 36.4128 2.19948C35.6208 1.35951 34.4568 0.927528 33.1669 0.927528C30.815 0.927528 28.895 2.36748 28.835 5.07939C28.835 5.08538 28.835 5.09138 28.835 5.09738V11.2832C28.835 11.8532 29.297 12.3091 29.861 12.3091H30.8329C30.9289 12.3091 31.0069 12.2311 31.0069 12.1351V5.09138C31.0489 3.75343 31.9969 3.04545 33.1669 3.04545C34.3368 3.04545 35.2848 3.75343 35.3268 5.09138V11.2772C35.3268 11.8472 35.7888 12.3031 36.3528 12.3031H37.3247C37.4207 12.3031 37.4987 12.2251 37.4987 12.1291V5.08538C37.5407 3.74743 38.4887 3.03946 39.6586 3.03946C40.8286 3.03946 41.7766 3.74743 41.8186 5.08538V11.2712C41.8186 11.8412 42.2806 12.2971 42.8445 12.2971H43.8165C43.9125 12.2971 43.9905 12.2191 43.9905 12.1231V5.07939C43.9965 5.08538 43.9905 5.07938 43.9905 5.07338V5.07338ZM65.8717 1.10152H64.2218C63.7658 1.10152 63.3398 1.32951 63.0818 1.7075L61.2579 4.40741C61.0179 4.7614 60.5019 4.7614 60.2619 4.40741L58.438 1.7075C58.186 1.32951 57.754 1.10152 57.298 1.10152H55.6481C55.5461 1.10152 55.4861 1.21552 55.5401 1.29951L58.792 6.12335C59.026 6.47134 59.026 6.92732 58.792 7.27531L55.5401 12.0991C55.4801 12.1831 55.5461 12.2971 55.6481 12.2971H57.298C57.754 12.2971 58.18 12.0691 58.438 11.6912L60.2619 8.99125C60.5019 8.63726 61.0179 8.63726 61.2579 8.99125L63.0818 11.6912C63.3338 12.0691 63.7658 12.2971 64.2218 12.2971H65.8717C65.9737 12.2971 66.0337 12.1831 65.9797 12.0991L62.7218 7.28131C62.4879 6.93332 62.4879 6.47734 62.7218 6.12935L65.9737 1.30551C66.0337 1.22152 65.9737 1.10152 65.8717 1.10152V1.10152ZM54.7961 1.10152H53.8242C53.3322 1.10152 52.9182 1.44951 52.8162 1.91149C51.9522 1.25152 50.8663 0.915527 49.6963 0.915527C46.8524 0.915527 44.5425 2.89546 44.5425 6.63333C44.5425 10.3712 46.8464 12.3511 49.6963 12.3511C50.8603 12.3511 51.9342 12.0211 52.7982 11.3732C52.8462 11.8952 53.2842 12.3091 53.8242 12.3091H54.7961C54.8921 12.3091 54.9701 12.2311 54.9701 12.1351V1.27551C54.9641 1.17952 54.8921 1.10152 54.7961 1.10152V1.10152ZM49.6963 10.2272C47.9984 10.2272 46.6184 8.98525 46.6184 6.63933C46.6184 4.29341 47.9984 3.05145 49.6963 3.05145C51.3942 3.05145 52.7742 4.29341 52.7742 6.63933C52.7742 8.98525 51.3942 10.2272 49.6963 10.2272Z" fill="white"/>
</mask>
<g mask="url(#mask1_30_166)">
<path d="M44.3925 21.399C51.9342 21.399 58.048 17.0715 58.048 11.7333C58.048 6.39509 51.9342 2.06763 44.3925 2.06763C36.8507 2.06763 30.7369 6.39509 30.7369 11.7333C30.7369 17.0715 36.8507 21.399 44.3925 21.399Z" fill="url(#paint2_radial_30_166)"/>
</g>
<mask id="mask2_30_166" style="mask-type:luminance" maskUnits="userSpaceOnUse" x="28" y="0" width="38" height="13">
<path d="M43.9905 5.07338C43.9305 2.36148 42.0106 0.927528 39.6586 0.927528C38.3687 0.927528 37.2047 1.35951 36.4128 2.19948C35.6208 1.35951 34.4568 0.927528 33.1669 0.927528C30.815 0.927528 28.895 2.36748 28.835 5.07939C28.835 5.08538 28.835 5.09138 28.835 5.09738V11.2832C28.835 11.8532 29.297 12.3091 29.861 12.3091H30.8329C30.9289 12.3091 31.0069 12.2311 31.0069 12.1351V5.09138C31.0489 3.75343 31.9969 3.04545 33.1669 3.04545C34.3368 3.04545 35.2848 3.75343 35.3268 5.09138V11.2772C35.3268 11.8472 35.7888 12.3031 36.3528 12.3031H37.3247C37.4207 12.3031 37.4987 12.2251 37.4987 12.1291V5.08538C37.5407 3.74743 38.4887 3.03946 39.6586 3.03946C40.8286 3.03946 41.7766 3.74743 41.8186 5.08538V11.2712C41.8186 11.8412 42.2806 12.2971 42.8445 12.2971H43.8165C43.9125 12.2971 43.9905 12.2191 43.9905 12.1231V5.07939C43.9965 5.08538 43.9905 5.07938 43.9905 5.07338V5.07338ZM65.8717 1.10152H64.2218C63.7658 1.10152 63.3398 1.32951 63.0818 1.7075L61.2579 4.40741C61.0179 4.7614 60.5019 4.7614 60.2619 4.40741L58.438 1.7075C58.186 1.32951 57.754 1.10152 57.298 1.10152H55.6481C55.5461 1.10152 55.4861 1.21552 55.5401 1.29951L58.792 6.12335C59.026 6.47134 59.026 6.92732 58.792 7.27531L55.5401 12.0991C55.4801 12.1831 55.5461 12.2971 55.6481 12.2971H57.298C57.754 12.2971 58.18 12.0691 58.438 11.6912L60.2619 8.99125C60.5019 8.63726 61.0179 8.63726 61.2579 8.99125L63.0818 11.6912C63.3338 12.0691 63.7658 12.2971 64.2218 12.2971H65.8717C65.9737 12.2971 66.0337 12.1831 65.9797 12.0991L62.7218 7.28131C62.4879 6.93332 62.4879 6.47734 62.7218 6.12935L65.9737 1.30551C66.0337 1.22152 65.9737 1.10152 65.8717 1.10152V1.10152ZM54.7961 1.10152H53.8242C53.3322 1.10152 52.9182 1.44951 52.8162 1.91149C51.9522 1.25152 50.8663 0.915527 49.6963 0.915527C46.8524 0.915527 44.5425 2.89546 44.5425 6.63333C44.5425 10.3712 46.8464 12.3511 49.6963 12.3511C50.8603 12.3511 51.9342 12.0211 52.7982 11.3732C52.8462 11.8952 53.2842 12.3091 53.8242 12.3091H54.7961C54.8921 12.3091 54.9701 12.2311 54.9701 12.1351V1.27551C54.9641 1.17952 54.8921 1.10152 54.7961 1.10152V1.10152ZM49.6963 10.2272C47.9984 10.2272 46.6184 8.98525 46.6184 6.63933C46.6184 4.29341 47.9984 3.05145 49.6963 3.05145C51.3942 3.05145 52.7742 4.29341 52.7742 6.63933C52.7742 8.98525 51.3942 10.2272 49.6963 10.2272Z" fill="white"/>
</mask>
<g mask="url(#mask2_30_166)">
<path d="M52.7742 8.99734C56.8764 8.99734 60.2019 5.67182 60.2019 1.56959C60.2019 -2.53264 56.8764 -5.85815 52.7742 -5.85815C48.672 -5.85815 45.3464 -2.53264 45.3464 1.56959C45.3464 5.67182 48.672 8.99734 52.7742 8.99734Z" fill="url(#paint3_radial_30_166)"/>
</g>
</g>
<defs>
<linearGradient id="paint0_linear_30_166" x1="28.8373" y1="6.63664" x2="65.9977" y2="6.63664" gradientUnits="userSpaceOnUse">
<stop stop-color="#991EEB"/>
<stop offset="0.399" stop-color="#5822B4"/>
<stop offset="0.727" stop-color="#5822B4"/>
<stop offset="1" stop-color="#991EEB"/>
</linearGradient>
<radialGradient id="paint1_radial_30_166" cx="0" cy="0" r="1" gradientUnits="userSpaceOnUse" gradientTransform="translate(37.7833 4.53125) scale(6.63544 8.63793)">
<stop stop-color="#7BA7F2" stop-opacity="0.5"/>
<stop offset="1" stop-color="#7BA7F2" stop-opacity="0"/>
</radialGradient>
<radialGradient id="paint2_radial_30_166" cx="0" cy="0" r="1" gradientUnits="userSpaceOnUse" gradientTransform="translate(44.39 11.7315) scale(13.653 9.66771)">
<stop offset="0.2" stop-color="#7BA7F2"/>
<stop offset="1" stop-color="#7BA7F2" stop-opacity="0"/>
</radialGradient>
<radialGradient id="paint3_radial_30_166" cx="0" cy="0" r="1" gradientUnits="userSpaceOnUse" gradientTransform="translate(52.7733 1.5719) scale(7.42614 7.42614)">
<stop stop-color="#7BA7F2"/>
<stop offset="1" stop-color="#7BA7F2" stop-opacity="0"/>
</radialGradient>
<clipPath id="clip0_30_166">
<rect width="66" height="11.4356" fill="white" transform="translate(0 0.915527)"/>
</clipPath>
</defs>
</svg>
